<?xml version="1.0" encoding="UTF-8"?>
<!DOCTYPE svg PUBLIC "-//W3C//DTD SVG 1.1//EN" "http://www.w3.org/Graphics/SVG/1.1/DTD/svg11.dtd">
<svg xmlns="http://www.w3.org/2000/svg" version="1.1" width="512px" height="512px" style="shape-rendering:geometricPrecision; text-rendering:geometricPrecision; image-rendering:optimizeQuality; fill-rule:evenodd; clip-rule:evenodd" xmlns:xlink="http://www.w3.org/1999/xlink">
<g><path style="opacity:0.988" fill="#fefefe" d="M 117.5,23.5 C 197.501,23.3333 277.501,23.5 357.5,24C 400.333,32.8333 426.167,58.6667 435,101.5C 435.667,107.833 435.667,114.167 435,120.5C 433.5,123.333 431.333,125.5 428.5,127C 410.167,127.667 391.833,127.667 373.5,127C 351.448,121.949 337.615,108.449 332,86.5C 331.5,73.5043 331.333,60.5043 331.5,47.5C 263.499,47.3333 195.499,47.5 127.5,48C 111,49.8333 101.833,59 100,75.5C 99.013,197.859 99.3464,320.192 101,442.5C 105.174,455.339 114.007,462.172 127.5,463C 212.833,463.667 298.167,463.667 383.5,463C 400,461.167 409.167,452 411,435.5C 411.333,345.833 411.667,256.167 412,166.5C 416.487,159.451 422.654,157.617 430.5,161C 432.378,162.543 433.878,164.376 435,166.5C 435.667,259.5 435.667,352.5 435,445.5C 429.833,468 416,481.833 393.5,487C 301.5,487.667 209.5,487.667 117.5,487C 95.4484,481.949 81.6151,468.449 76,446.5C 75.3333,319.167 75.3333,191.833 76,64.5C 81.7948,42.5377 95.6281,28.871 117.5,23.5 Z M 355.5,49.5 C 385.167,55.8333 403.167,73.8333 409.5,103.5C 367.167,109.833 349.167,91.8333 355.5,49.5 Z"/></g>
<g><path style="opacity:0.956" fill="#fefefe" d="M 176.5,183.5 C 180.637,183.146 184.637,183.646 188.5,185C 209.667,206.167 230.833,227.333 252,248.5C 254,253.167 254,257.833 252,262.5C 230.833,283.667 209.667,304.833 188.5,326C 177.648,330.247 171.314,326.747 169.5,315.5C 169.478,313.035 169.978,310.702 171,308.5C 188.681,290.986 206.181,273.319 223.5,255.5C 206.181,237.681 188.681,220.014 171,202.5C 167.645,194.509 169.478,188.175 176.5,183.5 Z"/></g>
<g><path style="opacity:0.987" fill="#fefffe" d="M 250.5,343.5 C 280.502,343.333 310.502,343.5 340.5,344C 347.07,347.655 349.237,353.155 347,360.5C 345.5,363.333 343.333,365.5 340.5,367C 310.5,367.667 280.5,367.667 250.5,367C 243.451,362.513 241.617,356.346 245,348.5C 246.73,346.598 248.563,344.931 250.5,343.5 Z"/></g>
</svg>
