<?xml version="1.0" encoding="UTF-8"?>
<!DOCTYPE svg PUBLIC "-//W3C//DTD SVG 1.1//EN" "http://www.w3.org/Graphics/SVG/1.1/DTD/svg11.dtd">
<svg xmlns="http://www.w3.org/2000/svg" version="1.1" width="813px" height="869px" style="shape-rendering:geometricPrecision; text-rendering:geometricPrecision; image-rendering:optimizeQuality; fill-rule:evenodd; clip-rule:evenodd" xmlns:xlink="http://www.w3.org/1999/xlink">
<g><path style="opacity:0.993" fill="#fefefe" d="M 326.5,143.5 C 422.929,168.524 519.262,194.024 615.5,220C 616.416,220.374 617.25,220.874 618,221.5C 644.404,317.951 670.571,414.451 696.5,511C 625.833,581.667 555.167,652.333 484.5,723C 482.833,723.667 481.167,723.667 479.5,723C 384.167,697.333 288.833,671.667 193.5,646C 166.808,550.739 140.641,455.239 115,359.5C 114.333,357.833 114.333,356.167 115,354.5C 185.395,283.938 255.895,213.605 326.5,143.5 Z M 411.5,284.5 C 412.376,284.369 413.043,284.702 413.5,285.5C 388.144,379.261 362.644,472.928 337,566.5C 268.167,497.667 199.333,428.833 130.5,360C 224.414,335.274 318.081,310.107 411.5,284.5 Z"/></g>
</svg>
