<?xml version="1.0" encoding="UTF-8"?>
<!DOCTYPE svg PUBLIC "-//W3C//DTD SVG 1.1//EN" "http://www.w3.org/Graphics/SVG/1.1/DTD/svg11.dtd">
<svg xmlns="http://www.w3.org/2000/svg" version="1.1" width="512px" height="512px" style="shape-rendering:geometricPrecision; text-rendering:geometricPrecision; image-rendering:optimizeQuality; fill-rule:evenodd; clip-rule:evenodd" xmlns:xlink="http://www.w3.org/1999/xlink">
<g><path style="opacity:0.974" fill="#fefefe" d="M 406.5,20.5 C 451.687,19.2001 479.187,40.5334 489,84.5C 492.203,106.875 486.869,126.875 473,144.5C 454.167,163.333 435.333,182.167 416.5,201C 424.539,210.204 425.372,220.037 419,230.5C 412.382,237.815 404.216,240.315 394.5,238C 390.99,236.245 387.657,234.578 384.5,233C 348.833,268.667 313.167,304.333 277.5,340C 266.288,349.274 253.621,355.941 239.5,360C 223.435,363.746 207.435,367.746 191.5,372C 182.284,376.572 173.617,381.905 165.5,388C 159.276,389.061 153.276,388.394 147.5,386C 137.509,378.349 129.342,369.182 123,358.5C 122.333,354.167 122.333,349.833 123,345.5C 129.095,337.383 134.428,328.716 139,319.5C 143.621,300.73 148.621,282.063 154,263.5C 157.635,254.228 162.301,245.561 168,237.5C 204.305,200.194 240.972,163.194 278,126.5C 275.131,121.734 273.298,116.401 272.5,110.5C 275.302,93.2045 285.302,86.3711 302.5,90C 305.249,91.1227 307.749,92.6227 310,94.5C 328.833,75.6667 347.667,56.8333 366.5,38C 378.347,28.5723 391.68,22.739 406.5,20.5 Z M 412.5,63.5 C 437.369,65.5251 448.536,78.8584 446,103.5C 444.527,107.779 442.527,111.779 440,115.5C 421.986,133.681 403.819,151.681 385.5,169.5C 370.5,155.167 355.833,140.5 341.5,125.5C 359.319,107.181 377.319,89.0138 395.5,71C 400.782,67.3532 406.448,64.8532 412.5,63.5 Z M 309.5,156.5 C 324.632,171.131 339.632,185.965 354.5,201C 318.139,237.695 281.472,274.028 244.5,310C 239.226,313.47 233.56,316.136 227.5,318C 211.973,321.732 196.64,325.232 181.5,328.5C 185.957,314.006 189.79,299.34 193,284.5C 195.197,277.773 198.197,271.439 202,265.5C 237.674,228.993 273.507,192.66 309.5,156.5 Z"/></g>
<g><path style="opacity:0.985" fill="#fefefe" d="M 20.5,169.5 C 63.5,169.5 106.5,169.5 149.5,169.5C 149.5,184.167 149.5,198.833 149.5,213.5C 120.833,213.5 92.1667,213.5 63.5,213.5C 63.5,291.5 63.5,369.5 63.5,447.5C 141.5,447.5 219.5,447.5 297.5,447.5C 297.5,416.167 297.5,384.833 297.5,353.5C 312.167,353.5 326.833,353.5 341.5,353.5C 341.5,399.167 341.5,444.833 341.5,490.5C 234.5,490.5 127.5,490.5 20.5,490.5C 20.5,383.5 20.5,276.5 20.5,169.5 Z"/></g>
</svg>
