<?xml version="1.0" encoding="UTF-8"?>
<!DOCTYPE svg PUBLIC "-//W3C//DTD SVG 1.1//EN" "http://www.w3.org/Graphics/SVG/1.1/DTD/svg11.dtd">
<svg xmlns="http://www.w3.org/2000/svg" version="1.1" width="512px" height="512px" style="shape-rendering:geometricPrecision; text-rendering:geometricPrecision; image-rendering:optimizeQuality; fill-rule:evenodd; clip-rule:evenodd" xmlns:xlink="http://www.w3.org/1999/xlink">
<g><path style="opacity:0.976" fill="#fefefe" d="M 120.5,41.5 C 148.181,40.255 169.348,51.255 184,74.5C 198.483,106.084 192.983,133.584 167.5,157C 162.156,160.674 156.49,163.84 150.5,166.5C 149.333,220.497 149.167,274.497 150,328.5C 155.637,357.47 172.804,375.303 201.5,382C 212.137,383.149 222.803,383.649 233.5,383.5C 233.083,374.085 233.583,364.752 235,355.5C 239.618,349.595 245.451,348.095 252.5,351C 266.667,365.167 280.833,379.333 295,393.5C 299.66,401.129 299.66,408.796 295,416.5C 281.167,430.333 267.333,444.167 253.5,458C 244.843,462.225 238.343,460.059 234,451.5C 233.5,443.173 233.334,434.84 233.5,426.5C 190.879,431.359 155.712,417.693 128,385.5C 115.157,368.31 107.823,348.976 106,327.5C 105.833,273.83 105.333,220.164 104.5,166.5C 67.9396,148.346 55.773,119.68 68,80.5C 78.8719,58.4472 96.3719,45.4472 120.5,41.5 Z"/></g>
<g><path style="opacity:0.976" fill="#fefefe" d="M 262.5,50.5 C 269.511,50.0849 274.345,53.0849 277,59.5C 277.5,67.8267 277.666,76.16 277.5,84.5C 316.829,79.9962 350.329,91.6628 378,119.5C 394.119,137.749 403.119,159.082 405,183.5C 405.167,237.17 405.667,290.836 406.5,344.5C 439.242,359.982 452.409,385.649 446,421.5C 435.854,451.332 415.02,467.332 383.5,469.5C 349.42,467.25 328.253,449.583 320,416.5C 316.114,382.596 329.614,358.596 360.5,344.5C 361.667,290.503 361.833,236.503 361,182.5C 355.363,153.53 338.196,135.697 309.5,129C 298.867,127.805 288.2,127.305 277.5,127.5C 277.917,136.915 277.417,146.248 276,155.5C 271.339,161.407 265.505,162.907 258.5,160C 244.333,145.833 230.167,131.667 216,117.5C 211.34,109.871 211.34,102.204 216,94.5C 229.833,80.6667 243.667,66.8333 257.5,53C 259.315,52.2432 260.981,51.4098 262.5,50.5 Z"/></g>
</svg>
