<?xml version="1.0" encoding="UTF-8"?>
<!DOCTYPE svg PUBLIC "-//W3C//DTD SVG 1.1//EN" "http://www.w3.org/Graphics/SVG/1.1/DTD/svg11.dtd">
<svg xmlns="http://www.w3.org/2000/svg" version="1.1" width="512px" height="512px" style="shape-rendering:geometricPrecision; text-rendering:geometricPrecision; image-rendering:optimizeQuality; fill-rule:evenodd; clip-rule:evenodd" xmlns:xlink="http://www.w3.org/1999/xlink">
<g><path style="opacity:0.95" fill="#fefefe" d="M 511.5,211.5 C 511.5,214.833 511.5,218.167 511.5,221.5C 501.72,244.097 484.72,258.263 460.5,264C 450.969,266.338 441.302,267.505 431.5,267.5C 429.066,274.371 426.066,281.038 422.5,287.5C 438.135,291.637 453.468,290.137 468.5,283C 472.458,280.766 475.958,277.933 479,274.5C 478.508,278.668 479.674,282.501 482.5,286C 491.131,291.162 500.465,294.496 510.5,296C 479.5,296.333 448.5,296.667 417.5,297C 368.543,377.822 296.543,421.822 201.5,429C 167.033,432.65 133.367,428.983 100.5,418C 45.5413,395.961 12.3747,355.794 1,297.5C 0.617425,296.944 0.117425,296.611 -0.5,296.5C -0.5,296.167 -0.5,295.833 -0.5,295.5C 0.833333,293.5 0.833333,291.5 -0.5,289.5C -0.5,278.833 -0.5,268.167 -0.5,257.5C -0.343436,251.374 2.65656,247.207 8.5,245C 22.496,244.5 36.496,244.333 50.5,244.5C 50.5,227.5 50.5,210.5 50.5,193.5C 67.5,193.5 84.5,193.5 101.5,193.5C 101.5,176.5 101.5,159.5 101.5,142.5C 135.5,142.5 169.5,142.5 203.5,142.5C 203.5,125.5 203.5,108.5 203.5,91.5C 227.833,91.5 252.167,91.5 276.5,91.5C 276.5,125.5 276.5,159.5 276.5,193.5C 293.5,193.5 310.5,193.5 327.5,193.5C 327.5,210.5 327.5,227.5 327.5,244.5C 344.963,245.707 361.463,242.374 377,234.5C 373.889,225.812 371.556,216.812 370,207.5C 367.928,186.787 372.595,167.787 384,150.5C 387.191,146.903 390.691,143.736 394.5,141C 397.964,140.183 401.298,140.517 404.5,142C 422.864,155.7 435.864,173.367 443.5,195C 466.671,191.917 488.337,196.25 508.5,208C 509.636,209.145 510.636,210.312 511.5,211.5 Z M 225.5,112.5 C 235.5,112.5 245.5,112.5 255.5,112.5C 255.5,122.5 255.5,132.5 255.5,142.5C 245.5,142.5 235.5,142.5 225.5,142.5C 225.5,132.5 225.5,122.5 225.5,112.5 Z M 122.5,163.5 C 132.5,163.5 142.5,163.5 152.5,163.5C 152.5,173.5 152.5,183.5 152.5,193.5C 142.5,193.5 132.5,193.5 122.5,193.5C 122.5,183.5 122.5,173.5 122.5,163.5 Z M 174.5,163.5 C 184.167,163.5 193.833,163.5 203.5,163.5C 203.5,173.5 203.5,183.5 203.5,193.5C 193.833,193.5 184.167,193.5 174.5,193.5C 174.5,183.5 174.5,173.5 174.5,163.5 Z M 225.5,163.5 C 235.5,163.5 245.5,163.5 255.5,163.5C 255.5,173.5 255.5,183.5 255.5,193.5C 245.5,193.5 235.5,193.5 225.5,193.5C 225.5,183.5 225.5,173.5 225.5,163.5 Z M 399.5,166.5 C 406.167,171.001 411.667,176.668 416,183.5C 420.961,193.722 425.127,204.222 428.5,215C 430.9,216.701 433.567,217.534 436.5,217.5C 444.747,215.651 453.081,214.317 461.5,213.5C 466.545,214.089 471.545,214.922 476.5,216C 479.981,216.905 482.981,218.571 485.5,221C 480.331,231.166 472.331,238.166 461.5,242C 456.625,243.802 451.625,245.135 446.5,246C 437.1,246.825 427.766,247.825 418.5,249C 412.633,259.232 407.133,269.732 402,280.5C 400.32,281.603 398.82,281.27 397.5,279.5C 393.67,283.587 389.003,286.421 383.5,288C 358.141,293.55 333.141,292.217 308.5,284C 304.591,282.218 301.258,279.718 298.5,276.5C 288.851,285.111 277.517,289.944 264.5,291C 247.844,293.003 232.177,290.003 217.5,282C 215.241,280.285 213.074,278.452 211,276.5C 203.332,283.733 194.166,287.899 183.5,289C 165.488,292.254 147.488,292.254 129.5,289C 122.497,287.666 116.497,284.499 111.5,279.5C 107.058,283.054 102.058,285.554 96.5,287C 75.4066,293.353 55.4066,291.02 36.5,280C 34.6667,278.167 32.8333,276.333 31,274.5C 31.4787,281.214 28.6453,285.881 22.5,288.5C 20.7568,281.285 20.0902,273.952 20.5,266.5C 127.167,266.667 233.834,266.5 340.5,266C 362.739,265.421 382.739,258.588 400.5,245.5C 403.589,241.813 404.089,237.813 402,233.5C 392.418,219.261 389.084,203.594 392,186.5C 393.223,179.328 395.723,172.661 399.5,166.5 Z M 71.5,215.5 C 81.5,215.5 91.5,215.5 101.5,215.5C 101.5,225.167 101.5,234.833 101.5,244.5C 91.5,244.5 81.5,244.5 71.5,244.5C 71.5,234.833 71.5,225.167 71.5,215.5 Z M 122.5,215.5 C 132.5,215.5 142.5,215.5 152.5,215.5C 152.5,225.167 152.5,234.833 152.5,244.5C 142.5,244.5 132.5,244.5 122.5,244.5C 122.5,234.833 122.5,225.167 122.5,215.5 Z M 174.5,215.5 C 184.167,215.5 193.833,215.5 203.5,215.5C 203.5,225.167 203.5,234.833 203.5,244.5C 193.833,244.5 184.167,244.5 174.5,244.5C 174.5,234.833 174.5,225.167 174.5,215.5 Z M 225.5,215.5 C 235.5,215.5 245.5,215.5 255.5,215.5C 255.5,225.167 255.5,234.833 255.5,244.5C 245.5,244.5 235.5,244.5 225.5,244.5C 225.5,234.833 225.5,225.167 225.5,215.5 Z M 276.5,215.5 C 286.5,215.5 296.5,215.5 306.5,215.5C 306.5,225.167 306.5,234.833 306.5,244.5C 296.5,244.5 286.5,244.5 276.5,244.5C 276.5,234.833 276.5,225.167 276.5,215.5 Z M 23.5,296.5 C 146.5,296.333 269.5,296.5 392.5,297C 357.625,351.82 308.292,386.487 244.5,401C 210.11,408.696 175.443,410.362 140.5,406C 109.032,401.432 82.0325,388.099 59.5,366C 88.2549,366.63 116.255,362.464 143.5,353.5C 148.799,347.631 148.799,341.797 143.5,336C 139.289,334.466 134.956,334.133 130.5,335C 102.016,343.558 73.0163,346.058 43.5,342.5C 41.4205,342.314 39.9205,341.314 39,339.5C 31.3487,326.045 26.182,311.711 23.5,296.5 Z"/></g>
<g><path style="opacity:0.867" fill="#fefffe" d="M 159.5,316.5 C 162.247,316.187 164.914,316.52 167.5,317.5C 164.726,320.699 165.226,323.366 169,325.5C 170.512,324.743 171.846,323.743 173,322.5C 175.356,328.903 173.523,333.736 167.5,337C 155.233,338.641 150.733,333.474 154,321.5C 155.73,319.598 157.563,317.931 159.5,316.5 Z"/></g>
</svg>
