<?xml version="1.0" encoding="UTF-8"?>
<!DOCTYPE svg PUBLIC "-//W3C//DTD SVG 1.1//EN" "http://www.w3.org/Graphics/SVG/1.1/DTD/svg11.dtd">
<svg xmlns="http://www.w3.org/2000/svg" version="1.1" width="512px" height="512px" style="shape-rendering:geometricPrecision; text-rendering:geometricPrecision; image-rendering:optimizeQuality; fill-rule:evenodd; clip-rule:evenodd" xmlns:xlink="http://www.w3.org/1999/xlink">
<g><path style="opacity:0.982" fill="#000000" d="M 237.5,50.5 C 316.756,46.8836 379.589,76.8836 426,140.5C 463.084,199.249 470.417,261.582 448,327.5C 424.424,386.743 382.758,427.409 323,449.5C 323.628,430.554 323.628,411.554 323,392.5C 319.952,369.817 309.118,351.983 290.5,339C 316.887,337.206 340.887,328.873 362.5,314C 390.48,288.579 397.98,258.079 385,222.5C 380.875,213.218 375.375,204.884 368.5,197.5C 373.813,181.486 375.313,165.152 373,148.5C 372.226,144.951 370.893,141.618 369,138.5C 367.701,137.02 366.034,136.354 364,136.5C 351.541,137.542 340.041,141.375 329.5,148C 323.792,152.512 318.125,157.012 312.5,161.5C 280.167,150.833 247.833,150.833 215.5,161.5C 209.875,157.012 204.208,152.512 198.5,148C 186.931,140.476 174.264,136.809 160.5,137C 155.411,144.489 153.078,152.822 153.5,162C 153.993,173.961 155.993,185.628 159.5,197C 131.726,229.721 129.226,264.221 152,300.5C 165.257,315.891 181.757,326.391 201.5,332C 213.272,335.488 225.272,337.821 237.5,339C 224.61,347.054 215.61,358.221 210.5,372.5C 195.938,375.676 181.272,376.176 166.5,374C 159.721,370.888 154.555,366.055 151,359.5C 144.15,350.752 135.484,344.752 125,341.5C 122.431,341.533 120.597,342.7 119.5,345C 124.311,349.48 128.811,354.313 133,359.5C 138.251,370.255 142.918,381.255 147,392.5C 153.034,401.606 161.534,406.772 172.5,408C 183.161,408.5 193.828,408.667 204.5,408.5C 204.333,421.504 204.5,434.504 205,447.5C 205.311,449.556 205.811,451.556 206.5,453.5C 160.374,442.839 122.541,418.839 93,381.5C 46.6824,317.023 38.0157,247.69 67,173.5C 92.8928,116.306 135.726,78.1396 195.5,59C 209.442,55.1786 223.442,52.3453 237.5,50.5 Z"/></g>
</svg>
