<?xml version="1.0" encoding="UTF-8"?>
<!DOCTYPE svg PUBLIC "-//W3C//DTD SVG 1.1//EN" "http://www.w3.org/Graphics/SVG/1.1/DTD/svg11.dtd">
<svg xmlns="http://www.w3.org/2000/svg" version="1.1" width="512px" height="512px" style="shape-rendering:geometricPrecision; text-rendering:geometricPrecision; image-rendering:optimizeQuality; fill-rule:evenodd; clip-rule:evenodd" xmlns:xlink="http://www.w3.org/1999/xlink">
<g><path style="opacity:0.934" fill="#fefefe" d="M 67.5,39.5 C 192.834,39.3333 318.167,39.5 443.5,40C 459.535,41.702 468.702,50.5354 471,66.5C 471.667,192.5 471.667,318.5 471,444.5C 468.73,460.436 459.563,469.27 443.5,471C 318.167,471.667 192.833,471.667 67.5,471C 51.4646,469.298 42.2979,460.465 40,444.5C 39.3333,318.5 39.3333,192.5 40,66.5C 42.4735,50.5253 51.6401,41.5253 67.5,39.5 Z M 65.5,61.5 C 192.167,61.3333 318.834,61.5 445.5,62C 446.416,62.3742 447.25,62.8742 448,63.5C 449.163,127.419 449.663,191.419 449.5,255.5C 449.333,318.833 449.167,382.167 449,445.5C 448.626,446.416 448.126,447.25 447.5,448C 383.581,449.163 319.581,449.663 255.5,449.5C 192.167,449.333 128.833,449.167 65.5,449C 64.5838,448.626 63.7504,448.126 63,447.5C 61.3371,320.247 61.0037,192.914 62,65.5C 62.6897,63.6498 63.8564,62.3164 65.5,61.5 Z"/></g>
<g><path style="opacity:0.97" fill="#fefefe" d="M 234.5,234.5 C 248.5,234.5 262.5,234.5 276.5,234.5C 276.667,282.834 276.5,331.168 276,379.5C 271.293,413.527 251.627,430.527 217,430.5C 187.435,428.648 165.935,414.648 152.5,388.5C 163.25,381.708 174.083,375.041 185,368.5C 191.393,380.277 201.226,386.944 214.5,388.5C 226.021,388.502 232.521,382.835 234,371.5C 234.5,325.835 234.667,280.168 234.5,234.5 Z"/></g>
<g><path style="opacity:0.965" fill="#fefefe" d="M 354.5,234.5 C 382.038,231.524 403.205,241.524 418,264.5C 418.445,266.594 417.612,268.094 415.5,269C 406.3,275.031 396.966,280.865 387.5,286.5C 378.743,269.985 366.077,265.818 349.5,274C 341.429,285.635 343.429,295.302 355.5,303C 369.953,309.393 384.287,316.06 398.5,323C 428.199,341.09 437.032,366.59 425,399.5C 417.22,413.817 405.386,422.983 389.5,427C 365.272,433.066 342.272,430.066 320.5,418C 309.935,410.437 301.935,400.77 296.5,389C 306.312,381.495 316.478,374.328 327,367.5C 331.406,374.576 336.572,381.076 342.5,387C 354.597,395.645 367.263,396.645 380.5,390C 391.009,380.022 391.009,370.022 380.5,360C 362.621,351.377 344.955,342.377 327.5,333C 308.497,318.004 301.331,298.504 306,274.5C 310.559,256.274 321.725,244.108 339.5,238C 344.596,236.64 349.596,235.474 354.5,234.5 Z"/></g>
</svg>
