<?xml version="1.0" encoding="UTF-8"?>
<!DOCTYPE svg PUBLIC "-//W3C//DTD SVG 1.1//EN" "http://www.w3.org/Graphics/SVG/1.1/DTD/svg11.dtd">
<svg xmlns="http://www.w3.org/2000/svg" version="1.1" width="512px" height="512px" style="shape-rendering:geometricPrecision; text-rendering:geometricPrecision; image-rendering:optimizeQuality; fill-rule:evenodd; clip-rule:evenodd" xmlns:xlink="http://www.w3.org/1999/xlink">
<g><path style="opacity:0.954" fill="#fefefe" d="M 287.5,-0.5 C 288.167,-0.5 288.833,-0.5 289.5,-0.5C 307.901,26.4171 309.067,54.0837 293,82.5C 288.156,90.1876 282.823,97.5209 277,104.5C 259.301,122.531 241.968,140.864 225,159.5C 218.438,167.296 214.605,176.296 213.5,186.5C 222.595,214.689 235.428,241.022 252,265.5C 252.688,266.332 252.521,266.998 251.5,267.5C 228.288,251.455 207.788,232.455 190,210.5C 181.662,199.488 176.329,187.155 174,173.5C 173.26,165.94 174.26,158.606 177,151.5C 180.165,145.166 183.831,139.166 188,133.5C 194.167,127.333 200.333,121.167 206.5,115C 224.5,100.333 242.5,85.6667 260.5,71C 271.961,60.8809 281.128,49.0476 288,35.5C 292.772,23.3965 292.605,11.3965 287.5,-0.5 Z"/></g>
<g><path style="opacity:0.953" fill="#fefefe" d="M 366.5,89.5 C 369.187,89.3359 371.854,89.5026 374.5,90C 348.599,105.377 324.766,123.544 303,144.5C 298.954,149.26 295.954,154.594 294,160.5C 293.288,168.654 294.954,176.32 299,183.5C 305.984,194.157 311.65,205.491 316,217.5C 319.042,236.036 313.209,251.202 298.5,263C 288.73,270.723 277.73,275.389 265.5,277C 276.56,268.209 283.226,256.876 285.5,243C 284.827,239.461 283.994,235.961 283,232.5C 277.081,221.656 270.414,211.323 263,201.5C 248.119,170.907 253.619,144.407 279.5,122C 297.243,108.964 316.91,99.9644 338.5,95C 347.947,93.0405 357.281,91.2072 366.5,89.5 Z"/></g>
<g><path style="opacity:0.949" fill="#fefefe" d="M 175.5,256.5 C 182.508,256.334 189.508,256.5 196.5,257C 186.798,259.843 177.131,262.843 167.5,266C 160.082,268.031 154.082,272.031 149.5,278C 149.833,278.333 150.167,278.667 150.5,279C 156.288,281.188 162.288,282.521 168.5,283C 232.15,286.784 295.483,284.117 358.5,275C 347.833,283 337.167,291 326.5,299C 266.622,310.611 206.289,313.944 145.5,309C 130.199,307.741 115.533,304.075 101.5,298C 89.0178,290.253 88.3512,281.586 99.5,272C 112.37,265.365 126.037,261.365 140.5,260C 152.304,258.671 163.971,257.504 175.5,256.5 Z"/></g>
<g><path style="opacity:0.937" fill="#fefefe" d="M 391.5,256.5 C 423.765,255.599 438.932,271.265 437,303.5C 434.704,321.447 426.204,335.614 411.5,346C 393.752,357.747 374.418,364.58 353.5,366.5C 371.145,354.688 385.978,340.022 398,322.5C 405.079,312.184 407.746,300.851 406,288.5C 400.988,277.494 392.488,270.994 380.5,269C 374.796,268.544 369.13,268.544 363.5,269C 371.995,262.786 381.328,258.62 391.5,256.5 Z"/></g>
<g><path style="opacity:0.954" fill="#fefefe" d="M 165.5,313.5 C 167.527,313.338 169.527,313.505 171.5,314C 162.904,321.29 163.904,326.956 174.5,331C 191.473,335.832 208.807,337.998 226.5,337.5C 254.351,337.602 281.684,333.935 308.5,326.5C 319.629,332.231 330.295,338.731 340.5,346C 286.492,365.268 231.159,370.268 174.5,361C 163.067,359.078 152.067,355.744 141.5,351C 127.314,342.665 126.98,333.665 140.5,324C 148.237,318.79 156.571,315.29 165.5,313.5 Z"/></g>
<g><path style="opacity:0.959" fill="#fefefe" d="M 175.5,367.5 C 179.182,367.335 182.848,367.501 186.5,368C 183.71,370.21 182.877,373.044 184,376.5C 186.251,378.377 188.751,379.877 191.5,381C 223.465,386.081 255.132,384.414 286.5,376C 290.616,374.795 294.616,373.295 298.5,371.5C 310.053,378.102 321.053,385.436 331.5,393.5C 313.348,403.161 294.015,409.328 273.5,412C 243.821,416.587 214.154,416.587 184.5,412C 174.213,410.46 164.547,407.127 155.5,402C 148.93,396.175 147.763,389.342 152,381.5C 158.303,374.105 166.137,369.438 175.5,367.5 Z"/></g>
<g><path style="opacity:0.955" fill="#fefefe" d="M 100.5,394.5 C 110.212,394.214 119.879,394.714 129.5,396C 135.997,399.414 142.33,403.081 148.5,407C 134.588,405.096 121.255,407.096 108.5,413C 100.525,418.566 100.525,424.233 108.5,430C 116.708,434.514 125.374,437.847 134.5,440C 206.499,454 278.499,454 350.5,440C 364.835,437.003 378.168,431.67 390.5,424C 399.46,416.951 402.46,408.118 399.5,397.5C 420.827,406.696 424.161,420.196 409.5,438C 391.756,450.59 372.09,458.924 350.5,463C 293.321,474.355 235.655,477.688 177.5,473C 151.06,471.26 125.06,466.927 99.5,460C 83.3099,456.16 69.4766,448.326 58,436.5C 52.6512,427 53.4845,418.167 60.5,410C 72.4252,400.973 85.7585,395.807 100.5,394.5 Z"/></g>
<g><path style="opacity:0.917" fill="#fefefe" d="M 311.5,511.5 C 292.5,511.5 273.5,511.5 254.5,511.5C 208.659,508.563 164.159,498.896 121,482.5C 119.743,482.15 119.409,481.483 120,480.5C 200.099,499.621 280.599,501.454 361.5,486C 388.083,480.253 413.083,470.587 436.5,457C 443.576,452.594 450.076,447.428 456,441.5C 456.876,450.097 454.542,457.764 449,464.5C 439.167,474.997 427.667,483.164 414.5,489C 381.236,501.951 346.902,509.451 311.5,511.5 Z"/></g>
</svg>
