<?xml version="1.0" encoding="UTF-8"?>
<!DOCTYPE svg PUBLIC "-//W3C//DTD SVG 1.1//EN" "http://www.w3.org/Graphics/SVG/1.1/DTD/svg11.dtd">
<svg xmlns="http://www.w3.org/2000/svg" version="1.1" width="512px" height="512px" style="shape-rendering:geometricPrecision; text-rendering:geometricPrecision; image-rendering:optimizeQuality; fill-rule:evenodd; clip-rule:evenodd" xmlns:xlink="http://www.w3.org/1999/xlink">
<g><path style="opacity:0.977" fill="#fefefe" d="M 417.5,-0.5 C 425.167,-0.5 432.833,-0.5 440.5,-0.5C 474.759,8.32665 489.259,30.3266 484,65.5C 468.242,103.259 443.075,133.092 408.5,155C 398.523,160.489 388.189,165.156 377.5,169C 391.618,168.697 405.451,166.531 419,162.5C 415.178,178.278 406.678,191.111 393.5,201C 386.32,206.093 378.653,210.426 370.5,214C 376.833,214.333 383.167,214.667 389.5,215C 383.5,226.333 374.833,235 363.5,241C 352.909,246.641 341.909,251.308 330.5,255C 339.833,255.333 349.167,255.667 358.5,256C 336.52,286.986 309.186,311.986 276.5,331C 264.294,337.437 251.627,342.77 238.5,347C 251.167,347.333 263.833,347.667 276.5,348C 270.117,358.717 261.45,367.05 250.5,373C 238.524,379.769 225.857,384.769 212.5,388C 223.5,388.333 234.5,388.667 245.5,389C 232.525,401.491 217.192,409.824 199.5,414C 181.381,417.912 163.048,419.912 144.5,420C 150.257,425.673 153.09,432.507 153,440.5C 148.057,436.849 142.557,434.349 136.5,433C 129.828,431.521 123.162,430.188 116.5,429C 178.408,328.76 246.908,233.26 322,142.5C 345.696,114.131 370.863,86.964 397.5,61C 396.833,60.3333 396.167,60.3333 395.5,61C 364.501,85.6601 335.667,112.827 309,142.5C 254.724,204.763 205.057,270.43 160,339.5C 125.16,393.166 91.8269,447.833 60,503.5C 55.811,506.891 51.311,509.558 46.5,511.5C 44.1667,511.5 41.8333,511.5 39.5,511.5C 42.1629,503.17 45.6629,495.17 50,487.5C 62.7883,464.754 75.9549,442.254 89.5,420C 72.8333,419.667 56.1667,419.333 39.5,419C 46.8318,410.333 56.1652,405.333 67.5,404C 55.7601,399.015 50.2601,390.182 51,377.5C 59.6123,384.315 69.4456,387.649 80.5,387.5C 78.3444,372.189 71.6777,359.189 60.5,348.5C 71.2127,348.064 81.2127,350.731 90.5,356.5C 115.293,288.207 151.793,227.207 200,173.5C 235.8,131.367 274.633,92.2001 316.5,56C 340.332,35.5726 366.665,18.9059 395.5,6C 402.865,3.4975 410.198,1.33084 417.5,-0.5 Z"/></g>
</svg>
