<?xml version="1.0" encoding="UTF-8"?>
<!DOCTYPE svg PUBLIC "-//W3C//DTD SVG 1.1//EN" "http://www.w3.org/Graphics/SVG/1.1/DTD/svg11.dtd">
<svg xmlns="http://www.w3.org/2000/svg" version="1.1" width="512px" height="512px" style="shape-rendering:geometricPrecision; text-rendering:geometricPrecision; image-rendering:optimizeQuality; fill-rule:evenodd; clip-rule:evenodd" xmlns:xlink="http://www.w3.org/1999/xlink">
<g><path style="opacity:0.984" fill="#fefefe" d="M 223.5,-0.5 C 244.5,-0.5 265.5,-0.5 286.5,-0.5C 372.102,12.3808 436.936,56.0475 481,130.5C 488.71,145.597 495.376,161.264 501,177.5C 504.907,192.494 508.407,207.494 511.5,222.5C 511.5,244.5 511.5,266.5 511.5,288.5C 500.961,356.451 469.627,412.285 417.5,456C 379.406,485.468 336.406,503.968 288.5,511.5C 266.5,511.5 244.5,511.5 222.5,511.5C 128.859,495.568 61.359,445.234 20,360.5C 10.6143,337.182 3.78101,313.182 -0.5,288.5C -0.5,266.5 -0.5,244.5 -0.5,222.5C 13.428,137.797 57.0947,73.6306 130.5,30C 145.597,22.2904 161.264,15.6237 177.5,10C 192.823,6.01122 208.156,2.51122 223.5,-0.5 Z M 325.5,154.5 C 331.925,154.13 338.258,154.63 344.5,156C 346.871,158.674 348.037,161.841 348,165.5C 348.667,223.5 348.667,281.5 348,339.5C 338.415,323.912 328.415,308.578 318,293.5C 317.333,251.5 317.333,209.5 318,167.5C 317.487,161.167 319.987,156.834 325.5,154.5 Z M 172.5,160.5 C 177.196,160.671 181.863,161.171 186.5,162C 188.286,162.785 189.786,163.951 191,165.5C 257.927,266.362 324.594,367.362 391,468.5C 391.684,469.784 391.517,470.951 390.5,472C 386.167,474.5 381.833,477 377.5,479.5C 351.463,444.311 325.296,409.311 299,374.5C 263.37,321.535 227.537,268.868 191.5,216.5C 190.686,218.766 190.186,221.1 190,223.5C 189.667,271.833 189.333,320.167 189,368.5C 187.64,370.105 186.14,371.605 184.5,373C 178.539,374.239 172.539,374.573 166.5,374C 164.983,372.315 163.316,370.815 161.5,369.5C 160.337,301.874 160.17,234.207 161,166.5C 164.111,162.839 167.944,160.839 172.5,160.5 Z"/></g>
</svg>
