<svg clip-rule="evenodd" fill-rule="evenodd" height="512" image-rendering="optimizeQuality" shape-rendering="geometricPrecision" text-rendering="geometricPrecision" width="512" xmlns="http://www.w3.org/2000/svg"><g fill="#fefefe"><path d="m346.5 39.5c24.751-.7141 41.918 10.2859 51.5 33 6.531 20.9209 8.198 42.254 5 64-1.269 11.344-3.435 22.51-6.5 33.5.333.5.667 1 1 1.5 23.268 6.97 44.935 17.137 65 30.5 14.681 10.335 24.181 24.169 28.5 41.5 1.624 20.254-5.21 37.088-20.5 50.5-22.468 18.067-47.801 30.567-76 37.5 8.187 28.493 11.02 57.493 8.5 87-2.013 20.557-11.513 36.391-28.5 47.5-19.336 6.651-38.336 5.651-57-3-23.355-11.686-44.188-26.852-62.5-45.5-19.828 20.993-42.995 37.16-69.5 48.5-41.706 13.403-67.539-1.097-77.5-43.5-3.672-30.3-1.172-60.134 7.5-89.5-.405-.945-1.072-1.612-2-2-29.7945-7.808-55.9611-21.975-78.5-42.5-22.9843-30.026-20.151-57.526 8.5-82.5 21.4696-15.841 45.1363-27.508 71-35-9.043-30.877-10.21-62.043-3.5-93.5 10.879-29.8633 32.046-41.6967 63.5-35.5 17.829 5.0818 34.163 13.0818 49 24 11.092 8.421 21.592 17.5877 31.5 27.5 19.126-20.1309 41.292-35.9643 66.5-47.5 8.267-2.982 16.6-5.1487 25-6.5zm-192 22c7.522-.0241 14.855 1.1425 22 3.5 24.019 10.3531 45.019 25.0197 63 44-13.472 14.466-25.805 29.799-37 46-22.898 2.094-45.564 5.594-68 10.5-3.141-14.512-5.307-29.179-6.5-44-2.026-17.814 1.308-34.4808 10-50 4.427-5.2887 9.927-8.6221 16.5-10zm192 0c17.202-.6319 28.035 7.3681 32.5 24 3.195 12.8229 4.195 25.823 3 39-1.303 13.817-3.47 27.484-6.5 41-22.081-5.013-44.415-8.513-67-10.5-11.951-15.886-24.617-31.219-38-46 16.537-16.5991 35.203-30.2658 56-41 6.619-2.7074 13.286-4.874 20-6.5zm-114 91c6.548-9.887 14.215-18.887 23-27 7.824 8.66 15.491 17.494 23 26.5-15.33.5-30.663.667-46 .5zm-6 22c23.027-.387 46.027.113 69 1.5 17.681 25.011 33.348 51.345 47 79-12.151 24.647-25.818 48.314-41 71-30.996 3.319-61.996 3.319-93 0-14.809-21.771-27.976-44.605-39.5-68.5-.667-1.333-.667-2.667 0-4 13.234-26.816 28.234-52.483 45-77 4.268-.64 8.435-1.307 12.5-2zm-43 4c1.528.017 2.028.684 1.5 2-10.097 15.608-19.597 31.608-28.5 48-6.211-13.464-11.545-27.297-16-41.5 14.405-3.181 28.738-6.015 43-8.5zm141 0c15.151 1.997 30.151 4.83 45 8.5-4.455 14.203-9.789 28.036-16 41.5-9.185-17.049-18.852-33.716-29-50zm-206 14c7.984 20.746 16.317 41.58 25 62.5-8.262 18.024-15.262 36.524-21 55.5-24.7503-6.043-47.0836-16.876-67-32.5-15.9724-13.731-18.139-29.231-6.5-46.5 10.1597-10.826 21.9931-19.326 35.5-25.5 11.3096-4.831 22.643-9.331 34-13.5zm272 0c20.746 5.875 40.08 14.709 58 26.5 28.508 22.763 27.842 44.763-2 66-18.226 11.778-37.892 20.278-59 25.5-5.616-18.845-12.616-37.178-21-55 9.578-20.399 17.578-41.399 24-63zm-141 33c24.475-.359 36.308 11.641 35.5 36-5.431 17.421-17.264 25.254-35.5 23.5-17.421-5.431-25.254-17.264-23.5-35.5 3.349-12.515 11.182-20.515 23.5-24zm-70 97c-12.322-.831-24.322-3.164-36-7 3.824-11.645 8.324-22.978 13.5-34 7.017 14.042 14.517 27.708 22.5 41zm174-41c5.314 11.143 9.98 22.643 14 34.5-12.082 3.096-24.249 5.596-36.5 7.5-.315-1.408.018-2.741 1-4 7.938-12.207 15.105-24.874 21.5-38zm-216 56c19.158 4.137 38.492 7.304 58 9.5 13.422 18.659 27.922 36.492 43.5 53.5.667.667.667 1.333 0 2-16.461 16.312-34.961 29.812-55.5 40.5-7.667 3.367-15.667 5.534-24 6.5-14.244-1.033-23.41-8.366-27.5-22-5.181-18.487-5.848-37.154-2-56 1.564-11.583 4.064-22.917 7.5-34zm233 0c1.624-.14 2.79.527 3.5 2 6.985 23.868 9.652 48.201 8 73-3.58 32.602-20.747 43.436-51.5 32.5-22.508-10.843-42.508-25.176-60-43 15.536-17.089 29.869-35.089 43-54 19.279-2.536 38.279-6.036 57-10.5zm-145 12c19.678.96 39.345 1.293 59 1-9.644 12.145-19.478 24.145-29.5 36-10.451-11.939-20.284-24.272-29.5-37z" opacity=".951"/><path d="m251.5 203.5c33.769 1.103 52.436 18.436 56 52-3 31.667-20.333 49-52 52-31.667-3-49-20.333-52-52 2.59-29.917 18.59-47.25 48-52zm-2 22c-12.318 3.485-20.151 11.485-23.5 24-1.754 18.236 6.079 30.069 23.5 35.5 18.236 1.754 30.069-6.079 35.5-23.5.808-24.359-11.025-36.359-35.5-36z" opacity=".941"/></g></svg>