<?xml version="1.0" encoding="UTF-8"?>
<!DOCTYPE svg PUBLIC "-//W3C//DTD SVG 1.1//EN" "http://www.w3.org/Graphics/SVG/1.1/DTD/svg11.dtd">
<svg xmlns="http://www.w3.org/2000/svg" version="1.1" width="512px" height="512px" style="shape-rendering:geometricPrecision; text-rendering:geometricPrecision; image-rendering:optimizeQuality; fill-rule:evenodd; clip-rule:evenodd" xmlns:xlink="http://www.w3.org/1999/xlink">
<g><path style="opacity:0.956" fill="#fefefe" d="M 148.5,124.5 C 187.501,124.333 226.501,124.5 265.5,125C 272.422,128.695 274.255,134.195 271,141.5C 269.363,143.81 267.196,145.31 264.5,146C 227.5,146.333 190.5,146.667 153.5,147C 150,147.833 147.833,150 147,153.5C 146.333,221.5 146.333,289.5 147,357.5C 147.786,360.583 149.619,362.749 152.5,364C 187.5,364.333 222.5,364.667 257.5,365C 265.755,368.645 267.922,374.479 264,382.5C 261.806,385.181 258.973,386.681 255.5,387C 219.804,387.953 184.137,387.62 148.5,386C 128.489,378.502 120.489,364.002 124.5,342.5C 120.818,342.335 117.152,342.501 113.5,343C 110.207,348.418 107.04,353.918 104,359.5C 102.457,361.378 100.624,362.878 98.5,364C 88.8333,364.667 79.1667,364.667 69.5,364C 62.8931,359.405 61.3931,353.571 65,346.5C 66.5793,344.959 68.4127,343.792 70.5,343C 76.1667,342.667 81.8333,342.333 87.5,342C 91.5843,335.163 95.9177,328.496 100.5,322C 108.389,320.565 116.389,320.065 124.5,320.5C 124.5,310.833 124.5,301.167 124.5,291.5C 106.164,291.667 87.8303,291.5 69.5,291C 62.6885,286.264 61.3551,280.431 65.5,273.5C 67.1311,271.703 69.1311,270.536 71.5,270C 89.1635,269.5 106.83,269.333 124.5,269.5C 124.5,260.167 124.5,250.833 124.5,241.5C 106.497,241.667 88.4969,241.5 70.5,241C 63.1436,236.875 61.3102,231.041 65,223.5C 66.214,221.951 67.714,220.785 69.5,220C 87.8303,219.5 106.164,219.333 124.5,219.5C 124.5,209.833 124.5,200.167 124.5,190.5C 116.389,190.935 108.389,190.435 100.5,189C 95.9177,182.504 91.5843,175.837 87.5,169C 81.5,168.667 75.5,168.333 69.5,168C 62.8931,163.405 61.3931,157.571 65,150.5C 66.5793,148.959 68.4127,147.792 70.5,147C 79.8333,146.333 89.1667,146.333 98.5,147C 100.624,148.122 102.457,149.622 104,151.5C 107.04,157.082 110.207,162.582 113.5,168C 117.152,168.499 120.818,168.665 124.5,168.5C 120.58,146.988 128.58,132.321 148.5,124.5 Z"/></g>
<g><path style="opacity:0.958" fill="#fefefe" d="M 299.5,124.5 C 320.503,124.333 341.503,124.5 362.5,125C 382.547,132.578 390.547,147.078 386.5,168.5C 390.182,168.665 393.848,168.499 397.5,168C 400.793,162.582 403.96,157.082 407,151.5C 408.543,149.622 410.376,148.122 412.5,147C 421.833,146.333 431.167,146.333 440.5,147C 445.704,148.572 448.037,152.072 447.5,157.5C 447.953,162.429 445.953,165.929 441.5,168C 435.5,168.333 429.5,168.667 423.5,169C 419.416,175.837 415.082,182.504 410.5,189C 402.611,190.435 394.611,190.935 386.5,190.5C 386.5,200.167 386.5,209.833 386.5,219.5C 404.836,219.333 423.17,219.5 441.5,220C 445.953,222.071 447.953,225.571 447.5,230.5C 447.542,235.583 445.209,239.083 440.5,241C 422.503,241.5 404.503,241.667 386.5,241.5C 386.5,250.833 386.5,260.167 386.5,269.5C 404.17,269.333 421.836,269.5 439.5,270C 447.56,273.445 449.726,279.279 446,287.5C 444.786,289.049 443.286,290.215 441.5,291C 423.17,291.5 404.836,291.667 386.5,291.5C 386.5,301.167 386.5,310.833 386.5,320.5C 394.611,320.065 402.611,320.565 410.5,322C 415.082,328.496 419.416,335.163 423.5,342C 429.167,342.333 434.833,342.667 440.5,343C 445.704,344.572 448.037,348.072 447.5,353.5C 447.953,358.429 445.953,361.929 441.5,364C 431.833,364.667 422.167,364.667 412.5,364C 410.376,362.878 408.543,361.378 407,359.5C 403.96,353.918 400.793,348.418 397.5,343C 393.848,342.501 390.182,342.335 386.5,342.5C 390.511,364.002 382.511,378.502 362.5,386C 353.481,387.877 344.481,387.877 335.5,386C 329.891,382.723 328.058,377.89 330,371.5C 331.122,369.376 332.622,367.543 334.5,366C 342.089,364.769 349.756,364.103 357.5,364C 361,363.167 363.167,361 364,357.5C 364.667,289.5 364.667,221.5 364,153.5C 363.167,150 361,147.833 357.5,147C 338.5,146.667 319.5,146.333 300.5,146C 295.407,144.163 292.74,140.496 292.5,135C 293.242,130.326 295.575,126.826 299.5,124.5 Z"/></g>
<g><path style="opacity:0.91" fill="#fefffe" d="M 196.5,162.5 C 211.274,163.423 216.107,170.756 211,184.5C 203.333,192.5 195.667,192.5 188,184.5C 183.558,174.226 186.391,166.893 196.5,162.5 Z"/></g>
<g><path style="opacity:0.913" fill="#fefffe" d="M 252.5,162.5 C 267.131,163.436 271.965,170.77 267,184.5C 259.333,192.5 251.667,192.5 244,184.5C 239.48,174.216 242.313,166.883 252.5,162.5 Z"/></g>
<g><path style="opacity:0.912" fill="#fefffe" d="M 307.5,162.5 C 317.708,161.555 323.708,166.055 325.5,176C 323.012,188.91 315.679,192.91 303.5,188C 296.336,181.343 295.67,174.009 301.5,166C 303.432,164.541 305.432,163.375 307.5,162.5 Z"/></g>
<g><path style="opacity:0.958" fill="#fefefe" d="M 194.5,204.5 C 213.951,203.131 227.118,211.465 234,229.5C 235.625,252.783 235.959,276.117 235,299.5C 231.134,306.122 225.634,307.955 218.5,305C 217.333,303.833 216.167,302.667 215,301.5C 213.551,291.605 213.051,281.605 213.5,271.5C 204.833,271.5 196.167,271.5 187.5,271.5C 187.949,281.605 187.449,291.605 186,301.5C 179.667,308.167 173.333,308.167 167,301.5C 165.355,278.588 165.021,255.588 166,232.5C 170.089,217.578 179.589,208.244 194.5,204.5 Z M 199.5,226.5 C 206.546,227.047 211.046,230.714 213,237.5C 213.499,241.486 213.666,245.486 213.5,249.5C 204.833,249.5 196.167,249.5 187.5,249.5C 186.046,241.539 188.046,234.706 193.5,229C 195.611,228.155 197.611,227.322 199.5,226.5 Z"/></g>
<g><path style="opacity:0.959" fill="#fefefe" d="M 256.5,208.5 C 266.506,208.334 276.506,208.5 286.5,209C 307.427,215.671 315.26,229.838 310,251.5C 302.204,267.484 289.371,274.151 271.5,271.5C 271.949,281.605 271.449,291.605 270,301.5C 262.54,308.589 255.873,307.923 250,299.5C 249.333,271.5 249.333,243.5 250,215.5C 251.694,212.642 253.861,210.309 256.5,208.5 Z M 271.5,230.5 C 276.777,229.931 281.777,230.765 286.5,233C 290.78,238.315 290.447,243.315 285.5,248C 280.934,249.309 276.267,249.809 271.5,249.5C 271.5,243.167 271.5,236.833 271.5,230.5 Z"/></g>
<g><path style="opacity:0.956" fill="#fefefe" d="M 330.5,208.5 C 337.654,207.157 342.487,209.823 345,216.5C 345.667,243.833 345.667,271.167 345,298.5C 341.683,305.943 336.183,308.11 328.5,305C 326.622,303.457 325.122,301.624 324,299.5C 323.333,271.5 323.333,243.5 324,215.5C 325.018,211.985 327.185,209.652 330.5,208.5 Z"/></g>
<g><path style="opacity:0.91" fill="#fefefe" d="M 196.5,320.5 C 210.327,321.156 215.494,328.156 212,341.5C 203.214,351.003 194.881,350.67 187,340.5C 184.017,330.803 187.183,324.136 196.5,320.5 Z"/></g>
<g><path style="opacity:0.913" fill="#fefefe" d="M 252.5,320.5 C 267.131,321.436 271.965,328.77 267,342.5C 259.333,350.5 251.667,350.5 244,342.5C 239.48,332.216 242.313,324.883 252.5,320.5 Z"/></g>
<g><path style="opacity:0.912" fill="#fefefe" d="M 308.5,320.5 C 318.618,320.118 324.285,324.951 325.5,335C 322.877,346.482 315.877,350.482 304.5,347C 297.637,342.043 295.804,335.543 299,327.5C 301.505,324.147 304.671,321.814 308.5,320.5 Z"/></g>
<g><path style="opacity:0.892" fill="#fefffe" d="M 294.5,364.5 C 307.528,365.219 311.361,371.552 306,383.5C 305.097,384.701 303.931,385.535 302.5,386C 290.555,388.388 285.389,383.555 287,371.5C 288.767,368.228 291.267,365.895 294.5,364.5 Z"/></g>
</svg>
