<?xml version="1.0" encoding="UTF-8"?>
<!DOCTYPE svg PUBLIC "-//W3C//DTD SVG 1.1//EN" "http://www.w3.org/Graphics/SVG/1.1/DTD/svg11.dtd">
<svg xmlns="http://www.w3.org/2000/svg" version="1.1" width="512px" height="512px" style="shape-rendering:geometricPrecision; text-rendering:geometricPrecision; image-rendering:optimizeQuality; fill-rule:evenodd; clip-rule:evenodd" xmlns:xlink="http://www.w3.org/1999/xlink">
<g><path style="opacity:0.946" fill="#fefefe" d="M 151.5,-0.5 C 175.167,-0.5 198.833,-0.5 222.5,-0.5C 255.21,1.43701 287.543,6.60368 319.5,15C 335.505,19.3372 350.172,26.3372 363.5,36C 369.386,40.8873 373.22,47.054 375,54.5C 375.5,127.166 375.667,199.833 375.5,272.5C 414.835,272.333 454.168,272.5 493.5,273C 502.018,276.353 508.018,282.186 511.5,290.5C 511.5,358.167 511.5,425.833 511.5,493.5C 507.833,501.833 501.833,507.833 493.5,511.5C 391.833,511.5 290.167,511.5 188.5,511.5C 179.943,508.778 174.109,503.111 171,494.5C 169.558,477.556 169.058,460.556 169.5,443.5C 130.146,442.748 91.4798,437.248 53.5,427C 35.648,422.065 19.8147,413.565 6,401.5C 3.28937,398.067 1.1227,394.4 -0.5,390.5C -0.5,277.833 -0.5,165.167 -0.5,52.5C 4.50979,41.9856 12.1765,33.8189 22.5,28C 43.7852,17.7602 66.1186,10.7602 89.5,7C 110.212,3.63188 130.879,1.13188 151.5,-0.5 Z M 153.5,17.5 C 199.897,15.2042 245.897,18.3708 291.5,27C 312.632,30.5971 332.299,37.9305 350.5,49C 355.943,52.6808 357.776,57.5142 356,63.5C 348.446,71.7036 339.279,77.5369 328.5,81C 289.534,93.7165 249.534,100.383 208.5,101C 167.15,102.683 126.15,99.6835 85.5,92C 65.0537,88.3933 45.7203,81.7266 27.5,72C 23.6667,69.5 20.5,66.3333 18,62.5C 17.0037,58.7928 17.6704,55.4595 20,52.5C 32.6795,42.8158 46.8461,35.9824 62.5,32C 92.5193,24.294 122.853,19.4607 153.5,17.5 Z M 17.5,87.5 C 39.3785,99.4042 62.7119,107.237 87.5,111C 162.171,123.659 236.504,121.993 310.5,106C 326.775,102.077 342.108,95.9107 356.5,87.5C 357.667,115.827 357.833,144.161 357,172.5C 353.454,177.713 348.954,181.88 343.5,185C 322.792,194.68 301.125,201.346 278.5,205C 206.681,216.788 135.347,214.455 64.5,198C 51.5255,194.564 39.1922,189.564 27.5,183C 23.6667,180.5 20.5,177.333 18,173.5C 17.5,144.835 17.3334,116.169 17.5,87.5 Z M 356.5,197.5 C 357.498,222.328 357.831,247.328 357.5,272.5C 301.166,272.333 244.832,272.5 188.5,273C 179.763,275.404 173.929,280.904 171,289.5C 169.594,300.436 169.094,311.436 169.5,322.5C 127.449,322.491 86.4494,315.991 46.5,303C 38.3923,299.78 30.7257,295.78 23.5,291C 21.2911,289.127 19.4578,286.96 18,284.5C 17.3333,255.833 17.3333,227.167 18,198.5C 39.682,210.505 62.8487,218.339 87.5,222C 154.166,233.333 220.832,233.333 287.5,222C 310.224,218.203 331.891,211.203 352.5,201C 354.093,200.051 355.426,198.885 356.5,197.5 Z M 192.5,290.5 C 291.501,290.333 390.501,290.5 489.5,291C 490.667,292.167 491.833,293.333 493,294.5C 493.667,359.5 493.667,424.5 493,489.5C 491.833,490.667 490.667,491.833 489.5,493C 389.752,493.995 290.086,493.662 190.5,492C 189.54,490.581 188.707,489.081 188,487.5C 187.333,423.833 187.333,360.167 188,296.5C 188.804,293.854 190.304,291.854 192.5,290.5 Z M 17.5,309.5 C 36.2541,319.92 56.2541,327.086 77.5,331C 107.585,336.871 137.918,340.371 168.5,341.5C 169.5,369.492 169.833,397.492 169.5,425.5C 127.09,425.033 85.7563,418.2 45.5,405C 38.5545,402.194 31.8878,398.861 25.5,395C 22.628,392.463 20.128,389.63 18,386.5C 17.5,360.835 17.3334,335.169 17.5,309.5 Z M 338.5,349.5 C 348.269,349.463 354.436,354.129 357,363.5C 357.667,382.5 357.667,401.5 357,420.5C 352.863,417.171 348.363,416.671 343.5,419C 339.5,423.667 339.5,428.333 343.5,433C 339.826,434.522 336.16,434.188 332.5,432C 329.238,429.408 326.738,426.241 325,422.5C 324.333,402.167 324.333,381.833 325,361.5C 327.858,355.466 332.358,351.466 338.5,349.5 Z"/></g>
<g><path style="opacity:0.931" fill="#fefefe" d="M 252.5,331.5 C 278.266,332.755 290.433,346.088 289,371.5C 285.178,375.721 280.678,376.554 275.5,374C 274.299,373.097 273.465,371.931 273,370.5C 272.781,358.688 266.947,351.688 255.5,349.5C 241.499,352.643 236.666,360.976 241,374.5C 243.124,378.313 246.291,380.813 250.5,382C 273.821,382.831 287.155,394.665 290.5,417.5C 288.489,438.844 276.822,450.511 255.5,452.5C 234.411,450.578 222.744,439.078 220.5,418C 223.08,408.582 228.58,406.416 237,411.5C 238.378,415.388 239.378,419.388 240,423.5C 246.64,434.702 255.473,436.868 266.5,430C 274.363,421.798 274.363,413.632 266.5,405.5C 260.404,401.866 253.737,400.032 246.5,400C 226.846,392.531 218.679,378.365 222,357.5C 226.762,342.385 236.929,333.718 252.5,331.5 Z"/></g>
<g><path style="opacity:0.94" fill="#fefefe" d="M 336.5,331.5 C 355.059,330.913 367.559,339.247 374,356.5C 375.624,378.783 375.957,401.116 375,423.5C 374.232,427.137 373.066,430.637 371.5,434C 375.433,438.328 376.266,443.162 374,448.5C 368.375,453.935 363.042,453.602 358,447.5C 340.157,455.931 324.824,452.597 312,437.5C 309.781,433.729 308.115,429.729 307,425.5C 306.333,403.167 306.333,380.833 307,358.5C 311.668,343.658 321.501,334.658 336.5,331.5 Z M 338.5,349.5 C 332.358,351.466 327.858,355.466 325,361.5C 324.333,381.833 324.333,402.167 325,422.5C 326.738,426.241 329.238,429.408 332.5,432C 336.16,434.188 339.826,434.522 343.5,433C 339.5,428.333 339.5,423.667 343.5,419C 348.363,416.671 352.863,417.171 357,420.5C 357.667,401.5 357.667,382.5 357,363.5C 354.436,354.129 348.269,349.463 338.5,349.5 Z"/></g>
<g><path style="opacity:0.94" fill="#fefefe" d="M 398.5,331.5 C 403.382,331.175 406.882,333.175 409,337.5C 409.5,369.832 409.667,402.165 409.5,434.5C 424.837,434.333 440.17,434.5 455.5,435C 460.155,437.897 461.655,442.063 460,447.5C 458.457,449.378 456.624,450.878 454.5,452C 435.833,452.667 417.167,452.667 398.5,452C 396.152,451.654 394.319,450.487 393,448.5C 391.346,411.585 391.013,374.585 392,337.5C 393.436,334.558 395.603,332.558 398.5,331.5 Z"/></g>
</svg>
