<?xml version="1.0" encoding="UTF-8"?>
<!DOCTYPE svg PUBLIC "-//W3C//DTD SVG 1.1//EN" "http://www.w3.org/Graphics/SVG/1.1/DTD/svg11.dtd">
<svg xmlns="http://www.w3.org/2000/svg" version="1.1" width="512px" height="512px" style="shape-rendering:geometricPrecision; text-rendering:geometricPrecision; image-rendering:optimizeQuality; fill-rule:evenodd; clip-rule:evenodd" xmlns:xlink="http://www.w3.org/1999/xlink">
<g><path style="opacity:0.98" fill="#fefefe" d="M 511.5,152.5 C 511.5,154.167 511.5,155.833 511.5,157.5C 504.5,184.336 491.167,207.503 471.5,227C 451.557,243.544 428.557,252.878 402.5,255C 360.876,260.264 323.542,250.264 290.5,225C 276.862,212.363 263.529,199.363 250.5,186C 218.997,158.882 185.997,156.882 151.5,180C 142.629,187.204 134.795,195.371 128,204.5C 135.185,163 157.351,132.5 194.5,113C 234.372,98.0488 274.372,97.7155 314.5,112C 328.009,117.914 340.342,125.58 351.5,135C 367.532,150.7 383.865,166.033 400.5,181C 431.876,199.311 461.876,197.311 490.5,175C 498.1,167.905 505.1,160.405 511.5,152.5 Z"/></g>
<g><path style="opacity:0.98" fill="#fefefe" d="M -0.5,358.5 C -0.5,356.833 -0.5,355.167 -0.5,353.5C 21.4606,280.306 70.7939,247.806 147.5,256C 174.893,258.791 199.226,268.791 220.5,286C 234.138,298.637 247.471,311.637 260.5,325C 300.464,356.774 338.298,354.274 374,317.5C 377,313.833 380,310.167 383,306.5C 376.345,344.324 356.845,373.49 324.5,394C 297.958,406.889 269.958,411.889 240.5,409C 209.723,406.971 182.723,395.971 159.5,376C 143.468,360.3 127.135,344.967 110.5,330C 79.1241,311.689 49.1241,313.689 20.5,336C 12.8998,343.095 5.89981,350.595 -0.5,358.5 Z"/></g>
</svg>
