<?xml version="1.0" encoding="UTF-8"?>
<!DOCTYPE svg PUBLIC "-//W3C//DTD SVG 1.1//EN" "http://www.w3.org/Graphics/SVG/1.1/DTD/svg11.dtd">
<svg xmlns="http://www.w3.org/2000/svg" version="1.1" width="512px" height="512px" style="shape-rendering:geometricPrecision; text-rendering:geometricPrecision; image-rendering:optimizeQuality; fill-rule:evenodd; clip-rule:evenodd" xmlns:xlink="http://www.w3.org/1999/xlink">
<g><path style="opacity:0.932" fill="#fefefe" d="M 50.5,39.5 C 187.167,39.3333 323.834,39.5 460.5,40C 466.537,40.3706 470.037,43.5372 471,49.5C 471.667,186.5 471.667,323.5 471,460.5C 470.5,467 467,470.5 460.5,471C 323.833,471.667 187.167,471.667 50.5,471C 44,470.5 40.5,467 40,460.5C 39.3333,323.5 39.3333,186.5 40,49.5C 41.143,43.5388 44.643,40.2055 50.5,39.5 Z M 61.5,61.5 C 190.833,61.5 320.167,61.5 449.5,61.5C 449.5,190.833 449.5,320.167 449.5,449.5C 320.167,449.5 190.833,449.5 61.5,449.5C 61.5,320.167 61.5,190.833 61.5,61.5 Z"/></g>
<g><path style="opacity:0.973" fill="#fefefe" d="M 152.5,234.5 C 200.5,234.5 248.5,234.5 296.5,234.5C 296.5,246.5 296.5,258.5 296.5,270.5C 279.5,270.5 262.5,270.5 245.5,270.5C 245.5,323.833 245.5,377.167 245.5,430.5C 231.5,430.5 217.5,430.5 203.5,430.5C 203.5,377.167 203.5,323.833 203.5,270.5C 186.5,270.5 169.5,270.5 152.5,270.5C 152.5,258.5 152.5,246.5 152.5,234.5 Z"/></g>
<g><path style="opacity:0.967" fill="#fefefe" d="M 364.5,234.5 C 384.087,234.159 403.421,236.159 422.5,240.5C 422.296,253.523 421.629,266.523 420.5,279.5C 407.766,271.644 393.932,267.311 379,266.5C 368.546,266.104 359.879,269.771 353,277.5C 348.856,285.894 350.023,293.394 356.5,300C 372.212,309.19 388.212,317.856 404.5,326C 428.341,342.857 435.841,365.357 427,393.5C 421.332,410.501 409.832,421.334 392.5,426C 378.34,429.266 364.007,430.266 349.5,429C 335.309,427.461 321.309,424.961 307.5,421.5C 307.167,406.818 307.501,392.152 308.5,377.5C 326.432,390.483 346.432,395.983 368.5,394C 380.948,391.557 386.448,384.057 385,371.5C 382.925,367.421 380.092,363.921 376.5,361C 363.659,353.746 350.659,346.746 337.5,340C 308.815,321.951 299.982,296.784 311,264.5C 316.289,253.212 324.789,245.379 336.5,241C 345.699,237.642 355.033,235.475 364.5,234.5 Z"/></g>
</svg>
